<?xml version="1.0" encoding="utf-8"?>
<!-- Generator: Adobe Illustrator 19.2.1, SVG Export Plug-In . SVG Version: 6.00 Build 0)  -->
<svg version="1.1" xmlns="http://www.w3.org/2000/svg" xmlns:xlink="http://www.w3.org/1999/xlink" x="0px" y="0px"
	 viewBox="0 0 220 220" style="enable-background:new 0 0 220 220;" xml:space="preserve">
<style type="text/css">
	.st0{display:none;}
	.st1{fill:#FFFFFF;}
	.st2{fill-rule:evenodd;clip-rule:evenodd;fill:#C0BFBF;}
	.st3{fill-rule:evenodd;clip-rule:evenodd;fill:#808080;}
	.st4{fill-rule:evenodd;clip-rule:evenodd;fill:#FFFFFF;}
</style>
<g id="Layer_1" class="st0">
</g>
<g id="Layer_2">
	<g id="Rectangle_2">
		<g>
			<path class="st1" d="M218,2v216H2V2H218 M220,0H0v220h220V0L220,0z"/>
		</g>
	</g>
	<g id="Rectangle_11">
		<g>
			<polygon class="st2" points="108.1,145.9 108.1,200.5 142,146.2 142,145.9 			"/>
		</g>
	</g>
	<g id="Rectangle_11_copy">
		<g>
			<polygon class="st3" points="74.8,145.9 74.8,146.2 108.7,200.5 108.7,145.9 			"/>
		</g>
	</g>
	<g id="Rectangle_8_copy">
		<g>
			<polygon class="st4" points="108.4,136.4 74.8,146.2 108.4,156 142,146.2 			"/>
		</g>
	</g>
	<g id="Rectangle_9_copy_2">
		<g>
			<polygon class="st3" points="18,53.2 67.9,133.4 109,145.9 109,53.2 			"/>
		</g>
	</g>
	<g id="Rectangle_9_copy">
		<g>
			<polygon class="st2" points="108.1,53.2 108.1,145.9 149.2,133.4 199.1,53.2 			"/>
		</g>
	</g>
	<g id="Rectangle_8">
		<g>
			<polygon class="st4" points="108.5,26.7 17.9,53.2 108.5,79.8 199.1,53.2 			"/>
		</g>
	</g>
</g>
</svg>
